<svg width="12" height="15" viewBox="0 0 12 15" fill="none" xmlns="http://www.w3.org/2000/svg">
    <path
        d="M5.99812 15C5.60042 15 5.21901 14.842 4.9378 14.5607C4.65658 14.2794 4.49859 13.8978 4.49859 13.5H7.49766C7.49766 13.8978 7.33967 14.2794 7.05845 14.5607C6.77724 14.842 6.39582 15 5.99812 15ZM11.9962 12.75H0V11.25L1.49953 10.5V6.375C1.46003 5.31684 1.69892 4.26685 2.19231 3.33C2.43512 2.90045 2.76621 2.52728 3.16375 2.23511C3.56129 1.94294 4.01624 1.73841 4.49859 1.635V3.12533e-06H7.23224C6.75725 0.531009 6.46246 1.19877 6.39009 1.90763C6.31773 2.61649 6.4715 3.33007 6.82938 3.94616C7.18727 4.56224 7.7309 5.04922 8.3824 5.33732C9.0339 5.62543 9.75984 5.69987 10.4562 5.55C10.4825 5.81775 10.4952 6.09525 10.4952 6.375V10.5L11.9947 11.25V12.75H11.9962ZM9.74695 4.5C9.45157 4.49951 9.15918 4.44082 8.88647 4.3273C8.61376 4.21377 8.36608 4.04762 8.15756 3.83834C7.94904 3.62906 7.78377 3.38075 7.67119 3.10758C7.5586 2.8344 7.50091 2.54173 7.5014 2.24625C7.5019 1.95078 7.56056 1.65829 7.67406 1.3855C7.78755 1.11271 7.95364 0.864945 8.16286 0.656361C8.37207 0.447777 8.62031 0.282457 8.8934 0.169839C9.16648 0.0572211 9.45907 -0.000489336 9.75445 3.12533e-06C10.351 0.000997696 10.9227 0.239004 11.3438 0.661664C11.765 1.08432 12.001 1.65702 12 2.25375C11.999 2.85049 11.7611 3.42239 11.3385 3.84364C10.916 4.2649 10.3435 4.501 9.74695 4.5Z"
        fill="#557B83" />
</svg>