<svg width="16" height="16" viewBox="0 0 16 16" fill="none" xmlns="http://www.w3.org/2000/svg">
    <circle cx="8" cy="8" r="8" transform="matrix(-1 0 0 1 16 0)" fill="#557B83" />
    <path
        d="M10.856 7.67063C10.9004 7.70733 10.9367 7.75644 10.9618 7.81372C10.9869 7.871 11 7.93474 11 7.99946C11 8.06417 10.9869 8.12791 10.9618 8.1852C10.9367 8.24248 10.9004 8.29158 10.856 8.32828L6.52296 11.9286C6.47299 11.9702 6.41445 11.9947 6.35371 11.9992C6.29297 12.0038 6.23236 11.9883 6.17845 11.9544C6.12455 11.9205 6.07941 11.8695 6.04795 11.807C6.01649 11.7445 5.9999 11.6728 6 11.5997L6 4.39918C6.00025 4.32631 6.01705 4.2549 6.04858 4.19263C6.08012 4.13036 6.1252 4.07959 6.17899 4.04578C6.23277 4.01196 6.29321 3.99638 6.35382 4.00071C6.41443 4.00504 6.47291 4.02912 6.52296 4.07035L10.856 7.67063Z"
        fill="white" />
</svg>