<svg width="16" height="16" viewBox="0 0 16 16" fill="none" xmlns="http://www.w3.org/2000/svg">
    <circle cx="8" cy="8" r="8" fill="#557B83" />
    <path
        d="M5.144 7.67063C5.09959 7.70733 5.06328 7.75644 5.03819 7.81372C5.01311 7.871 5 7.93474 5 7.99946C5 8.06417 5.01311 8.12791 5.03819 8.1852C5.06328 8.24248 5.09959 8.29158 5.144 8.32828L9.47704 11.9286C9.52701 11.9702 9.58555 11.9947 9.64629 11.9992C9.70703 12.0038 9.76764 11.9883 9.82155 11.9544C9.87545 11.9205 9.92059 11.8695 9.95205 11.807C9.98351 11.7445 10.0001 11.6728 10 11.5997L10 4.39918C9.99975 4.32631 9.98295 4.2549 9.95142 4.19263C9.91988 4.13036 9.8748 4.07959 9.82101 4.04578C9.76723 4.01196 9.70679 3.99638 9.64618 4.00071C9.58557 4.00504 9.52709 4.02912 9.47704 4.07035L5.144 7.67063Z"
        fill="white" />
</svg>