<svg width="22" height="23" viewBox="0 0 22 23" fill="none" xmlns="http://www.w3.org/2000/svg">
    <g id="home-icon">
        <rect id="Rectangle 7" width="22" height="23" rx="5" fill="#557B83" />
        <path id="Vector"
            d="M16.0018 12.2945V16.2057C16.0018 16.347 15.9468 16.4692 15.8368 16.5724C15.7268 16.6756 15.5966 16.7273 15.446 16.7273H12.1115V13.5982H9.88849V16.7273H6.55396C6.40345 16.7273 6.27319 16.6756 6.1632 16.5724C6.0532 16.4692 5.99821 16.347 5.99821 16.2057V12.2945C5.99821 12.289 5.99966 12.2809 6.00255 12.27C6.00544 12.2591 6.00689 12.251 6.00689 12.2456L11 8.38317L15.9931 12.2456C15.9989 12.2564 16.0018 12.2727 16.0018 12.2945ZM17.9382 11.7322L17.3999 12.3352C17.3535 12.3841 17.2928 12.414 17.2175 12.4248H17.1915C17.1162 12.4248 17.0554 12.4058 17.0091 12.3678L11 7.6661L4.9909 12.3678C4.92143 12.4113 4.85196 12.4303 4.78249 12.4248C4.70724 12.414 4.64645 12.3841 4.60014 12.3352L4.06175 11.7322C4.01544 11.6779 3.99518 11.6141 4.00096 11.5407C4.00675 11.4674 4.03859 11.409 4.09649 11.3655L10.34 6.48457C10.5253 6.34333 10.7453 6.27271 11 6.27271C11.2547 6.27271 11.4747 6.34333 11.66 6.48457L13.7788 8.14686V6.5579C13.7788 6.48185 13.8048 6.41938 13.8569 6.37049C13.909 6.3216 13.9756 6.29715 14.0567 6.29715H15.7239C15.805 6.29715 15.8715 6.3216 15.9236 6.37049C15.9757 6.41938 16.0018 6.48185 16.0018 6.5579V9.8825L17.9035 11.3655C17.9614 11.409 17.9932 11.4674 17.999 11.5407C18.0048 11.6141 17.9846 11.6779 17.9382 11.7322Z"
            fill="white" />
    </g>
</svg>