<svg width="92" height="35" viewBox="0 0 92 35" fill="none" xmlns="http://www.w3.org/2000/svg">
    <path
        d="M87.5653 30.6V11.9H63.4457V30.6H87.5653ZM82.3968 0H85.8425V3.4H87.5653C88.4792 3.4 89.3556 3.75821 90.0018 4.39584C90.648 5.03346 91.011 5.89826 91.011 6.8V30.6C91.011 32.487 89.4777 34 87.5653 34H63.4457C62.5318 34 61.6554 33.6418 61.0092 33.0042C60.363 32.3665 60 31.5017 60 30.6V6.8C60 4.93 61.5506 3.4 63.4457 3.4H65.1685V0H68.6142V3.4H82.3968V0ZM75.5055 27.489L74.5063 26.588C70.9572 23.409 68.6142 21.318 68.6142 18.751C68.6142 16.66 70.2853 15.011 72.4044 15.011C73.6104 15.011 74.7474 15.555 75.5055 16.422C76.2635 15.555 77.4006 15.011 78.6066 15.011C80.7257 15.011 82.3968 16.66 82.3968 18.751C82.3968 21.318 80.0538 23.409 76.5047 26.588L75.5055 27.489Z"
        fill="#557B83" />
    <path
        d="M4 30.6374L9.23077 4.48351H16.4044L22.0884 18.3743L33.0308 4.48351H40.5407L35.3846 30.6374H27.3517L29.6689 18.7017L22.3077 28.2835H18.422L14.3771 18.8852L14.1831 19.8579L12.033 30.6374H4Z"
        fill="#E5EFC1" />
    <path
        d="M54.5181 31.2352C51.828 31.2352 49.4741 30.7494 47.4565 29.778C45.439 28.7817 43.8697 27.4117 42.7489 25.6681C41.6529 23.8996 41.1049 21.8571 41.1049 19.5406C41.1049 17.2491 41.5034 15.1443 42.3005 13.2264C43.1225 11.3084 44.2683 9.652 45.7379 8.25713C47.2075 6.86226 48.9511 5.7912 50.9686 5.04394C52.9862 4.27178 55.2031 3.8857 57.6192 3.8857C60.1349 3.8857 62.3642 4.33406 64.3071 5.23076C66.25 6.12746 67.6946 7.4227 68.6412 9.11647L62.2895 14.0857C61.7415 13.1143 61.0316 12.367 60.1598 11.8439C59.2881 11.296 58.2544 11.022 57.0587 11.022C56.0126 11.022 55.0536 11.2212 54.1818 11.6198C53.3349 11.9934 52.6001 12.5414 51.9774 13.2637C51.3547 13.9612 50.869 14.7956 50.5203 15.767C50.1716 16.7384 49.9972 17.8095 49.9972 18.9802C49.9972 20.0015 50.2214 20.8982 50.6697 21.6703C51.1181 22.4425 51.7408 23.0403 52.5379 23.4637C53.3598 23.8872 54.3064 24.0989 55.3774 24.0989C56.3987 24.0989 57.395 23.8623 58.3664 23.389C59.3628 22.9157 60.3093 22.1436 61.206 21.0725L66.3994 26.0417C64.8053 27.9846 63.0243 29.3421 61.0565 30.1143C59.1137 30.8615 56.9342 31.2352 54.5181 31.2352Z"
        fill="#E5EFC1" />
    <path fill-rule="evenodd" clip-rule="evenodd"
        d="M0.340591 33.6374L6.77136 1.48351H18.4183L22.9161 12.4755L31.575 1.48351H44.1898L43.1895 6.55746C43.3471 6.39603 43.5082 6.23728 43.6726 6.08121C45.4508 4.39342 47.5433 3.11559 49.9114 2.23635C52.3052 1.32251 54.8855 0.885704 57.6192 0.885704C60.4935 0.885704 63.164 1.39906 65.5643 2.50688C68.0206 3.64057 69.9724 5.34882 71.26 7.65301L72.5134 9.89601L62.2536 17.9228L70.4818 25.7958L68.7186 27.9447C66.8609 30.2088 64.68 31.9151 62.1524 32.907L62.143 32.9107L62.1335 32.9143C59.7965 33.8132 57.2441 34.2352 54.5181 34.2352C51.4669 34.2352 48.6523 33.6834 46.1551 32.481L46.1416 32.4745L46.1282 32.4679C43.666 31.252 41.6654 29.5305 40.2253 27.2904L40.2119 27.2695L40.1988 27.2484C39.9007 26.7674 39.6356 26.2729 39.4028 25.7658L37.8509 33.6374H23.7132L24.3001 30.6144L23.786 31.2835H16.4471L15.4331 28.9275L14.4937 33.6374H0.340591ZM18.422 28.2835H22.3077L29.6689 18.7017L27.3517 30.6374H35.3846L40.5407 4.48351H33.0308L22.0884 18.3743L16.4044 4.48351H9.23077L4 30.6374H12.033L14.3771 18.8852L18.422 28.2835ZM60.5752 17.1526L59.6766 15.5597C59.3585 14.9958 59.0002 14.6467 58.6164 14.4164L58.5897 14.4004L58.5633 14.3839C58.2427 14.1823 57.7822 14.022 57.0587 14.022C56.4032 14.022 55.8748 14.1444 55.4291 14.3482L55.411 14.3565L55.3927 14.3645C54.9662 14.5527 54.5905 14.8272 54.2497 15.2225L54.2326 15.2423L54.2152 15.2618C53.8746 15.6433 53.5759 16.1342 53.3439 16.7806C53.1264 17.3863 52.9972 18.1092 52.9972 18.9802C52.9972 19.5496 53.1177 19.9118 53.2641 20.1639C53.4251 20.4411 53.6296 20.6432 53.9286 20.8054C54.2616 20.9734 54.7196 21.0989 55.3774 21.0989C55.917 21.0989 56.466 20.9778 57.0525 20.692L57.0659 20.6855L57.0793 20.6792C57.596 20.4337 58.2149 19.9719 58.9057 19.1467L60.5752 17.1526ZM50.9686 5.04394C48.9511 5.7912 47.2075 6.86226 45.7379 8.25713C44.2683 9.652 43.1225 11.3084 42.3005 13.2264C41.5034 15.1443 41.1049 17.2491 41.1049 19.5406C41.1049 21.8571 41.6529 23.8996 42.7489 25.6681C43.8697 27.4117 45.439 28.7817 47.4565 29.778C49.4741 30.7494 51.828 31.2352 54.5181 31.2352C56.9342 31.2352 59.1137 30.8615 61.0565 30.1143C62.1984 29.6662 63.2774 29.021 64.2934 28.1787C64.4074 28.0842 64.5206 27.9872 64.6331 27.8878C65.2453 27.346 65.8341 26.7307 66.3994 26.0417L61.206 21.0725C60.8639 21.4812 60.5145 21.8463 60.1579 22.1679C59.5798 22.6893 58.9826 23.0963 58.3664 23.389C57.395 23.8623 56.3987 24.0989 55.3774 24.0989C54.3064 24.0989 53.3598 23.8872 52.5379 23.4637C51.7408 23.0403 51.1181 22.4425 50.6697 21.6703C50.2214 20.8982 49.9972 20.0015 49.9972 18.9802C49.9972 17.8095 50.1716 16.7384 50.5203 15.767C50.869 14.7956 51.3547 13.9612 51.9774 13.2637C52.6001 12.5414 53.3349 11.9934 54.1818 11.6198C55.0536 11.2212 56.0126 11.022 57.0587 11.022C58.2544 11.022 59.2881 11.296 60.1598 11.8439C60.4836 12.0382 60.7851 12.2634 61.0642 12.5196C61.5366 12.953 61.9451 13.4751 62.2895 14.0857L68.6412 9.11647C68.1987 8.32473 67.6474 7.62008 66.9873 7.0025C66.9094 6.92967 66.8301 6.85805 66.7492 6.78764C66.0487 6.17783 65.2347 5.65887 64.3071 5.23076C62.3642 4.33406 60.1349 3.8857 57.6192 3.8857C55.2031 3.8857 52.9862 4.27178 50.9686 5.04394Z"
        fill="#557B83" />
</svg>