<svg width="35" height="21" viewBox="0 0 35 21" fill="none" xmlns="http://www.w3.org/2000/svg">
    <rect width="34.16" height="20.98" rx="5" fill="#9DB5A2" />
    <path
        d="M5 15.5V5H7.91L12.11 11.855H10.58L14.66 5H17.57L17.6 15.5H14.375L14.345 9.86H14.855L12.065 14.555H10.505L7.595 9.86H8.225V15.5H5Z"
        fill="#E5EFC1" />
    <path
        d="M24.45 15.98C23.61 15.98 22.83 15.85 22.11 15.59C21.4 15.32 20.78 14.94 20.25 14.45C19.73 13.96 19.325 13.38 19.035 12.71C18.745 12.04 18.6 11.3 18.6 10.49C18.6 9.68 18.745 8.94 19.035 8.27C19.325 7.6 19.73 7.02 20.25 6.53C20.78 6.04 21.4 5.665 22.11 5.405C22.83 5.135 23.61 5 24.45 5C25.48 5 26.39 5.18 27.18 5.54C27.98 5.9 28.64 6.42 29.16 7.1L26.925 9.095C26.615 8.705 26.27 8.405 25.89 8.195C25.52 7.975 25.1 7.865 24.63 7.865C24.26 7.865 23.925 7.925 23.625 8.045C23.325 8.165 23.065 8.34 22.845 8.57C22.635 8.8 22.47 9.08 22.35 9.41C22.23 9.73 22.17 10.09 22.17 10.49C22.17 10.89 22.23 11.255 22.35 11.585C22.47 11.905 22.635 12.18 22.845 12.41C23.065 12.64 23.325 12.815 23.625 12.935C23.925 13.055 24.26 13.115 24.63 13.115C25.1 13.115 25.52 13.01 25.89 12.8C26.27 12.58 26.615 12.275 26.925 11.885L29.16 13.88C28.64 14.55 27.98 15.07 27.18 15.44C26.39 15.8 25.48 15.98 24.45 15.98Z"
        fill="white" />
</svg>