<svg width="18" height="19" viewBox="0 0 18 19" fill="none" xmlns="http://www.w3.org/2000/svg">
    <path
        d="M1.71429 17.2727C1.24286 17.2727 0.839144 17.1035 0.503144 16.7649C0.167144 16.4264 -0.000569973 16.0199 1.45525e-06 15.5455V3.45455C1.45525e-06 2.97955 0.168001 2.57277 0.504001 2.23423C0.840001 1.89568 1.24343 1.7267 1.71429 1.72727H2.57143V0H4.28572V1.72727H11.1429V0H12.8571V1.72727H13.7143C14.1857 1.72727 14.5894 1.89655 14.9254 2.23509C15.2614 2.57364 15.4291 2.98012 15.4286 3.45455V8.63636H13.7143V6.90909H1.71429V15.5455H7.71429V17.2727H1.71429ZM13.7143 19C12.6714 19 11.7606 18.6727 10.9817 18.018C10.2029 17.3634 9.71372 16.5392 9.51429 15.5455H10.8429C11.0286 16.1788 11.3823 16.697 11.904 17.1C12.4257 17.503 13.0291 17.7045 13.7143 17.7045C14.5429 17.7045 15.25 17.4095 15.8357 16.8193C16.4214 16.2292 16.7143 15.5167 16.7143 14.6818C16.7143 13.847 16.4214 13.1345 15.8357 12.5443C15.25 11.9542 14.5429 11.6591 13.7143 11.6591C13.3 11.6591 12.9143 11.7345 12.5571 11.8854C12.2 12.0362 11.8857 12.2487 11.6143 12.5227H12.8571V13.8182H9.42857V10.3636H10.7143V11.5943C11.1 11.2201 11.55 10.9213 12.0643 10.6979C12.5786 10.4745 13.1286 10.3631 13.7143 10.3636C14.9 10.3636 15.9109 10.7848 16.7469 11.6271C17.5829 12.4695 18.0006 13.4877 18 14.6818C18 15.8765 17.582 16.895 16.746 17.7374C15.91 18.5797 14.8994 19.0006 13.7143 19Z"
        fill="#557B83" />
</svg>