<svg width="22" height="24" viewBox="0 0 22 24" fill="none" xmlns="http://www.w3.org/2000/svg">
    <g id="schedule-icon">
        <rect id="Rectangle 7" width="22" height="23.2222" rx="5" fill="#557B83" fill-opacity="0" />
        <path id="Vector"
            d="M5.22504 12.809V14.7417C5.22504 15.2437 5.53115 15.7114 6.02093 15.9521L9.8473 17.8298C10.3065 18.0567 10.8575 18.0567 11.3166 17.8298L15.143 15.9521C15.6328 15.7114 15.9389 15.2437 15.9389 14.7417V12.809L11.3166 15.0787C10.8575 15.3056 10.3065 15.3056 9.8473 15.0787L5.22504 12.809ZM9.8473 6.16507L3.39603 9.32884C2.86799 9.5902 2.86799 10.278 3.39603 10.5393L9.8473 13.7031C10.3065 13.9301 10.8575 13.9301 11.3166 13.7031L17.4694 10.6838V14.7485C17.4694 15.1268 17.8138 15.4363 18.2347 15.4363C18.6556 15.4363 19 15.1268 19 14.7485V10.3399C19 10.0854 18.8469 9.85843 18.6021 9.73463L11.3166 6.16507C11.0905 6.05669 10.8382 6 10.582 6C10.3257 6 10.0734 6.05669 9.8473 6.16507V6.16507Z"
            fill="#557B83" />
    </g>
</svg>