<svg width="18" height="20" viewBox="0 0 18 20" fill="none" xmlns="http://www.w3.org/2000/svg">
    <path fill-rule="evenodd" clip-rule="evenodd"
        d="M10.2038 19.9312C8.34676 20.3568 6.99976 18.7321 6.99976 17.1257L6.99976 2.87426C6.99976 1.26791 8.34676 -0.356756 10.2038 0.0687523C14.6658 1.09079 17.9998 5.14839 17.9998 10C17.9998 14.8516 14.6658 18.9092 10.2038 19.9312V19.9312ZM4.70676 13.7736C4.51923 13.9644 4.26492 14.0716 3.99976 14.0716C3.73459 14.0716 3.48028 13.9644 3.29276 13.7736L0.292756 10.7197C0.105285 10.5288 -2.9682e-05 10.2699 -2.96588e-05 10C-2.96356e-05 9.73007 0.105285 9.4712 0.292756 9.2803L3.29276 6.22641C3.48136 6.04098 3.73396 5.93838 3.99616 5.94069C4.25835 5.94301 4.50917 6.05007 4.69458 6.23881C4.87998 6.42755 4.98515 6.68287 4.98743 6.94977C4.98971 7.21668 4.88892 7.47382 4.70676 7.66581L3.41376 8.98204L11.9998 8.98204C12.265 8.98204 12.5193 9.08929 12.7069 9.28019C12.8944 9.4711 12.9998 9.73002 12.9998 10C12.9998 10.27 12.8944 10.5289 12.7069 10.7198C12.5193 10.9107 12.265 11.018 11.9998 11.018L3.41376 11.018L4.70676 12.3342C4.89423 12.5251 4.99954 12.784 4.99954 13.0539C4.99954 13.3238 4.89423 13.5827 4.70676 13.7736V13.7736Z"
        fill="#C86A6A" />
</svg>